<?xml version="1.0" encoding="utf-8"?>
<!-- Generator: Adobe Illustrator 27.5.0, SVG Export Plug-In . SVG Version: 6.00 Build 0)  -->
<svg version="1.1" id="Layer_1" xmlns="http://www.w3.org/2000/svg" xmlns:xlink="http://www.w3.org/1999/xlink" x="0px" y="0px"
	 viewBox="0 0 32 32" style="enable-background:new 0 0 32 32;" xml:space="preserve">
<style type="text/css">
	.st0{fill:#7DCBC3;}
</style>
<path class="st0" d="M28,8.8c-0.3-0.1-0.5-0.1-0.8-0.1c-4.7,0-9.4,0-14,0c-0.9,0-1.9,0-2.8,0c-0.3,0-0.4-0.1-0.5-0.4
	C9.7,7.7,9.6,7.1,9.4,6.5C9.3,5.9,9.1,5.8,8.5,5.8c-1.3,0-2.6,0-3.9,0c-0.2,0-0.3,0-0.5,0C3.9,5.8,3.7,6,3.6,6.3
	C3.5,6.8,3.8,7.2,4.4,7.2c1.1,0,2.3,0,3.4,0c0.2,0,0.3,0.1,0.3,0.3c0.3,1.4,0.6,2.8,0.9,4.2c0.5,2.3,1,4.7,1.6,7
	c0.1,0.2,0,0.4-0.2,0.5c-1,0.6-1.4,2-0.7,3c0.6,0.8,1.4,1.1,2.3,1c0.1,0,0.2,0,0.3,0c0,0,0,0,0,0.1c-0.7,0.3-1.2,0.8-1.4,1.5
	s-0.1,1.4,0.4,2c0.8,1,2.1,1.1,3.1,0.3c0.5-0.4,0.8-1,0.8-1.6c0-1.1-0.6-1.8-1.4-2.2h8.9c-0.7,0.4-1.2,0.8-1.4,1.5
	c-0.2,0.7-0.1,1.4,0.4,2c0.8,1,2.2,1.1,3.2,0.2c0.5-0.4,0.7-1,0.7-1.6c0-1-0.6-1.7-1.5-2.1c0,0,0,0,0-0.1c0.1,0,0.3,0,0.4,0
	c0.1,0,0.3,0,0.4,0c0.4-0.1,0.6-0.3,0.6-0.7c0-0.4-0.2-0.6-0.7-0.7c-0.3,0-0.6,0-1-0.1c-4,0-8,0-11.9,0c-0.2,0-0.3,0-0.5,0
	c-0.3-0.1-0.6-0.3-0.6-0.6c0-0.3,0.2-0.6,0.6-0.6c0.2,0,0.4,0,0.6,0c4,0,8,0,11.9,0c0.2,0,0.5,0,0.7,0c0.4,0,0.6-0.2,0.8-0.6
	c0.1-0.5,0.3-1,0.4-1.4c0.8-2.6,1.5-5.2,2.3-7.8c0.1-0.4,0.2-0.7,0.2-1.1C28.4,9.1,28.3,8.9,28,8.8L28,8.8z M23.3,24.7
	c0.3,0,0.7,0.4,0.7,0.7c0,0.4-0.3,0.7-0.6,0.7c-0.4,0-0.7-0.4-0.7-0.7C22.6,25,23,24.7,23.3,24.7z M13,24.7c0.4,0,0.7,0.3,0.7,0.7
	c0,0.4-0.3,0.7-0.7,0.7c-0.3,0-0.7-0.4-0.7-0.7C12.4,25,12.7,24.7,13,24.7L13,24.7z M26.3,11.6c-0.7,2.3-1.3,4.7-2,7
	c0,0.2-0.1,0.2-0.3,0.2c-3.8,0-7.7,0-11.5,0c-0.3,0-0.4-0.1-0.4-0.3c-0.6-2.6-1.2-5.2-1.7-7.8c0-0.1-0.1-0.3-0.1-0.5h16.5
	C26.6,10.6,26.5,11.1,26.3,11.6L26.3,11.6z"/>
</svg>
